<?xml version="1.0" encoding="UTF-8" standalone="no"?>
<!-- Created with Inkscape (http://www.inkscape.org/) -->

<svg
   xmlns:dc="http://purl.org/dc/elements/1.1/"
   xmlns:cc="http://creativecommons.org/ns#"
   xmlns:rdf="http://www.w3.org/1999/02/22-rdf-syntax-ns#"
   xmlns:svg="http://www.w3.org/2000/svg"
   xmlns="http://www.w3.org/2000/svg"
   xmlns:sodipodi="http://sodipodi.sourceforge.net/DTD/sodipodi-0.dtd"
   xmlns:inkscape="http://www.inkscape.org/namespaces/inkscape"
   width="37.675758mm"
   height="20.426149mm"
   viewBox="0 0 37.675758 20.426149"
   version="1.1"
   id="svg1028"
   inkscape:version="0.92.1 r15371"
   sodipodi:docname="logo_editor_sql.svg">
  <defs
     id="defs1022" />
  <sodipodi:namedview
     id="base"
     pagecolor="#ffffff"
     bordercolor="#666666"
     borderopacity="1.0"
     inkscape:pageopacity="0.0"
     inkscape:pageshadow="2"
     inkscape:zoom="0.35"
     inkscape:cx="152.62686"
     inkscape:cy="78.600479"
     inkscape:document-units="mm"
     inkscape:current-layer="layer1"
     showgrid="false"
     inkscape:window-width="1366"
     inkscape:window-height="715"
     inkscape:window-x="-8"
     inkscape:window-y="-8"
     inkscape:window-maximized="1" />
  <metadata
     id="metadata1025">
    <rdf:RDF>
      <cc:Work
         rdf:about="">
        <dc:format>image/svg+xml</dc:format>
        <dc:type
           rdf:resource="http://purl.org/dc/dcmitype/StillImage" />
        <dc:title></dc:title>
      </cc:Work>
    </rdf:RDF>
  </metadata>
  <g
     inkscape:label="Camada 1"
     inkscape:groupmode="layer"
     id="layer1"
     transform="translate(-52.221644,-149.20356)">
    <path
       style="fill:#ffffff;stroke-width:0.09413005"
       d="m 56.059791,169.57724 c -0.02893,-0.0289 -0.279537,-0.0724 -0.556943,-0.0967 -1.142029,-0.0999 -2.417119,-0.57264 -2.975282,-1.10304 -0.297243,-0.28246 -0.305922,-0.31288 -0.305922,-1.07234 0,-0.42991 0.01585,-0.78164 0.03519,-0.78164 0.01934,0 0.22057,0.10079 0.447123,0.22398 0.226552,0.1232 0.613112,0.29839 0.859028,0.38931 0.315647,0.11671 0.447114,0.21722 0.447114,0.34182 0,0.39131 0.453375,1.13458 0.938945,1.53933 0.175836,0.14657 0.160245,0.10489 -0.07046,-0.18826 -0.618146,-0.78558 -0.763641,-1.87478 -0.364653,-2.72978 0.219277,-0.46987 0.825225,-1.10625 1.156541,-1.2146 0.09632,-0.0315 0.281028,-0.27806 0.410457,-0.5479 0.331571,-0.69128 0.779739,-0.94405 1.57575,-0.88872 0.579546,0.0403 0.58993,0.0367 0.778628,-0.26862 0.532309,-0.8613 1.47658,-1.39276 2.493319,-1.4033 0.865178,-0.009 1.421939,0.16296 1.98603,0.61331 0.71026,0.56705 1.322589,0.83688 1.90151,0.83795 0.818425,0.001 1.336673,-0.38774 1.336673,-1.00396 0,-0.53386 -0.181114,-0.74389 -1.236831,-1.43426 -1.204089,-0.78741 -1.397948,-1.0397 -1.398455,-1.81997 -2.62e-4,-0.48819 0.03242,-0.57723 0.335311,-0.91252 0.184617,-0.20434 0.487869,-0.42178 0.673905,-0.48317 0.36543,-0.1206 1.168636,-0.14054 1.624889,-0.0404 0.239187,0.0526 0.28358,0.10689 0.28358,0.34727 0,0.23297 -0.03004,0.27333 -0.164732,0.22115 -1.320226,-0.51151 -2.511761,0.13149 -2.19609,1.18511 0.09772,0.32615 0.213769,0.44185 0.837075,0.83461 1.618905,1.0201 1.874855,1.33624 1.773641,2.19081 -0.115535,0.97547 -0.829529,1.44688 -2.070782,1.36722 l -0.693164,-0.0445 0.127463,0.42352 c 0.07006,0.23294 0.127464,0.56505 0.127464,0.73802 0,0.27984 0.02853,0.31473 0.258858,0.31657 0.356292,0.003 0.957326,0.29293 1.284228,0.61983 0.421775,0.42178 0.617774,0.94121 0.617774,1.63722 0,0.96294 -0.415141,1.66048 -1.238107,2.08032 -0.329217,0.16796 -0.612408,0.1788 -4.668516,0.1788 -2.374921,0 -4.341701,-0.0237 -4.370606,-0.0526 z m -2.761173,-3.56061 c -0.938779,-0.44063 -1.076974,-0.64678 -1.076974,-1.60654 v -0.77021 l 0.635377,0.31268 c 0.349459,0.17197 1.016603,0.40369 1.482548,0.51495 0.465946,0.11125 0.908328,0.21878 0.983084,0.23896 0.09186,0.0248 0.04613,0.0913 -0.141199,0.20519 -0.363234,0.22089 -0.819336,0.74589 -0.975451,1.12278 -0.06856,0.16545 -0.151226,0.29929 -0.183777,0.29744 -0.03258,-0.002 -0.35817,-0.14373 -0.723608,-0.31525 z m 23.396839,-3.58777 v -3.15335 h 0.235319 c 0.201594,0 0.235327,0.0428 0.235327,0.29879 v 0.2988 l 0.211795,-0.19366 c 0.372698,-0.34078 0.79628,-0.49807 1.341349,-0.49807 1.14165,0 1.741408,0.72433 1.741408,2.10306 0,1.09467 -0.313142,1.7716 -1.019045,2.20291 -0.586942,0.35862 -1.577072,0.26894 -2.063712,-0.18692 l -0.211795,-0.1984 v 1.24009 1.24011 h -0.235327 -0.235319 z m 2.467083,0.69357 c 0.635014,-0.33252 1.012878,-1.66385 0.720532,-2.53859 -0.407688,-1.21984 -1.943009,-1.32683 -2.529966,-0.17631 -0.228923,0.44873 -0.261094,1.65295 -0.05477,2.04954 0.380822,0.73193 1.187342,1.0198 1.864178,0.66536 z m -23.928735,0.60612 c -1.126963,-0.18944 -2.389315,-0.70218 -2.788081,-1.13246 -0.199208,-0.21495 -0.22408,-0.32993 -0.22408,-1.03599 0,-0.43681 0.03178,-0.77985 0.07062,-0.76229 0.03883,0.0176 0.299803,0.15233 0.579943,0.2995 1.133842,0.59567 3.521565,0.97645 5.467919,0.872 l 1.08249,-0.0581 -0.39019,0.36361 c -0.214609,0.19997 -0.507406,0.54072 -0.650666,0.7572 -0.145201,0.21941 -0.313246,0.37336 -0.379697,0.34786 -0.574807,-0.22058 -1.437949,-0.0826 -1.736913,0.27762 -0.108608,0.13086 -0.510703,0.15856 -1.031321,0.071 z m 28.730621,-0.17936 c -1.227804,-0.62872 -1.421442,-2.88808 -0.335502,-3.91471 0.352875,-0.3336 0.692309,-0.45311 1.286978,-0.45311 0.98057,0 1.54872,0.60587 1.640517,1.74944 l 0.04843,0.60381 h -1.600946 -1.600946 l 0.08259,0.44712 c 0.14773,0.79983 0.646665,1.26546 1.365398,1.27429 0.404153,0.005 0.679632,-0.0845 1.476515,-0.47964 0.0428,-0.0212 0.06396,0.0804 0.04708,0.22592 -0.04684,0.40244 -0.51366,0.62835 -1.385242,0.67034 -0.538248,0.0259 -0.79311,-0.005 -1.024893,-0.12346 z m 2.093108,-2.79114 c -0.0981,-0.45553 -0.300167,-0.80264 -0.570296,-0.97963 -0.279151,-0.18291 -0.933651,-0.20767 -1.234429,-0.0467 -0.295328,0.15806 -0.67396,0.68443 -0.743908,1.03418 l -0.0596,0.29806 h 1.337062 1.337069 z m 1.533472,2.79359 c -0.193312,-0.10487 -0.258857,-0.21166 -0.258857,-0.42172 v -0.2813 l 0.400058,0.20507 c 0.705837,0.36184 1.511675,0.23168 1.636151,-0.26424 0.116128,-0.46272 -0.06246,-0.70343 -0.822658,-1.10886 -0.914985,-0.48798 -1.004665,-0.56696 -1.116833,-0.98354 -0.231071,-0.85812 0.346353,-1.51568 1.33096,-1.51568 0.76934,0 1.019702,0.11558 1.019702,0.47074 v 0.28714 l -0.305925,-0.15847 c -0.743397,-0.38508 -1.576673,-0.0791 -1.576673,0.57904 0,0.3616 0.126804,0.47874 1.020239,0.94247 0.797991,0.41419 0.988523,0.65079 0.979961,1.21689 -0.01172,0.77796 -0.527347,1.1833 -1.496711,1.17667 -0.3028,-0.002 -0.667041,-0.067 -0.809414,-0.14421 z M 67.84723,161.4405 v -2.16499 h 0.235326 0.235328 v 2.16499 2.16498 H 68.082556 67.84723 Z m 1.78847,0 v -2.16499 h 0.235327 c 0.189222,0 0.235327,0.0469 0.235327,0.23898 v 0.23899 l 0.211795,-0.20097 c 0.293218,-0.27823 0.570813,-0.37114 1.108876,-0.37114 0.381694,0 0.518637,0.0504 0.793973,0.29215 0.183008,0.16067 0.332736,0.35276 0.332736,0.42685 0,0.0754 0.124182,-0.006 0.281955,-0.18641 0.380473,-0.43333 0.736368,-0.56513 1.381605,-0.51162 0.448358,0.0372 0.57449,0.0906 0.793822,0.33606 0.384563,0.4304 0.459542,0.84389 0.46012,2.53747 l 5.3e-4,1.52961 H 75.23644 75.001113 l -0.0071,-1.48254 c -0.0087,-1.78353 -0.09829,-2.16824 -0.559217,-2.40142 -0.422758,-0.21388 -0.800473,-0.13767 -1.199413,0.24198 -0.418613,0.3984 -0.492125,0.7416 -0.492736,2.30063 l -5.29e-4,1.34135 h -0.235351 -0.235326 v -1.55617 c 0,-1.81814 -0.08193,-2.13488 -0.609246,-2.35521 -0.391806,-0.16371 -0.756444,-0.10169 -1.070498,0.18207 -0.437699,0.39547 -0.485245,0.61283 -0.485245,2.21856 v 1.51075 h -0.235327 -0.23532 z m 11.860389,-1.03544 v -3.20042 h 0.235328 0.235326 v 3.20042 3.20042 h -0.235326 -0.235328 z m -18.785644,1.56141 c -0.104383,-0.0732 -0.410321,-0.20506 -0.679856,-0.29322 -0.269542,-0.0882 -0.490071,-0.1719 -0.490071,-0.18607 0,-0.0285 1.40936,-0.7056 1.468789,-0.7056 0.02053,0 0.03733,0.29651 0.03733,0.65892 0,0.3624 -0.03297,0.6589 -0.07316,0.6589 -0.04027,0 -0.158596,-0.0598 -0.262972,-0.13293 z M 56.0032,160.96518 c -1.608396,-0.20016 -2.940939,-0.65397 -3.522698,-1.19969 -0.246074,-0.23082 -0.258858,-0.28563 -0.258858,-1.10969 v -0.86688 l 0.347945,-0.30549 c 1.248918,-1.09657 4.967408,-1.5442 7.841366,-0.94396 1.187873,0.24809 2.24256,0.77312 2.470769,1.22995 0.193962,0.38827 0.219562,1.34548 0.04518,1.69004 -0.296672,0.58624 -1.618445,1.19049 -3.080743,1.40837 -0.93484,0.13929 -3.071177,0.1934 -3.842974,0.0974 z m 11.756567,-2.90091 c -0.160007,-0.29898 -0.02695,-0.49756 0.311273,-0.46464 0.257456,0.025 0.293907,0.0636 0.293907,0.31099 0,0.23634 -0.04122,0.28714 -0.252526,0.31156 -0.175415,0.0202 -0.283096,-0.028 -0.352654,-0.15791 z m 13.384603,-1.93533 -0.492908,-0.41275 -0.919758,0.0506 c -0.813303,0.0448 -0.976781,0.0262 -1.412435,-0.16126 -1.006007,-0.43277 -1.541787,-1.33432 -1.605471,-2.70149 -0.07284,-1.56425 0.480569,-2.71572 1.559397,-3.24447 0.359534,-0.17622 0.601248,-0.21883 1.24616,-0.21968 0.720241,-8e-4 0.851786,0.0279 1.317826,0.28925 0.998992,0.56019 1.468527,1.61279 1.389912,3.11585 -0.0386,0.73824 -0.09273,0.97118 -0.344379,1.48235 -0.164217,0.33356 -0.420802,0.70933 -0.570196,0.83504 l -0.271627,0.22855 0.654495,0.49757 c 0.359968,0.27367 0.676677,0.53349 0.7038,0.57736 0.02711,0.0439 -0.13321,0.0789 -0.356291,0.0777 -0.339947,-0.002 -0.485413,-0.0689 -0.898525,-0.41477 z m -0.845418,-0.93384 c 1.089671,-0.45662 1.65607,-1.78368 1.391986,-3.2614 -0.232894,-1.3032 -0.995653,-2.01225 -2.168784,-2.01605 -0.985075,-0.003 -1.658599,0.46061 -2.106941,1.45093 -0.281503,0.62178 -0.271342,1.94103 0.01989,2.58858 0.413088,0.91836 1.065427,1.3592 2.016633,1.36281 0.299352,7.9e-4 0.68058,-0.0551 0.847172,-0.12487 z m -23.361705,0.40159 c -0.447819,-0.27302 -0.643065,-0.53118 -0.807923,-1.06831 -0.397355,-1.29462 0.10264,-2.82372 1.053189,-3.22089 0.36975,-0.15449 1.18804,-0.16634 1.469693,-0.0213 0.113086,0.0583 0.300912,0.1927 0.417399,0.29879 l 0.211795,0.19291 v -1.28717 -1.28716 h 0.235319 0.235327 v 3.24749 3.24749 h -0.235327 c -0.201784,0 -0.235319,-0.0427 -0.235319,-0.3 v -0.30001 l -0.258858,0.24144 c -0.395279,0.36867 -0.621515,0.45273 -1.2175,0.45235 -0.387852,-2.5e-4 -0.64083,-0.0573 -0.867795,-0.19565 z m 1.685237,-0.44977 c 0.420967,-0.29579 0.658916,-0.90887 0.658916,-1.69771 0,-1.19075 -0.450489,-1.79865 -1.332345,-1.79789 -1.047934,8e-4 -1.681234,1.12701 -1.398836,2.48733 0.120434,0.58011 0.556951,1.13051 0.962319,1.21336 0.341145,0.0697 0.853584,-0.025 1.109946,-0.20509 z m 4.728054,0.58277 c -0.322994,-0.12995 -0.398068,-0.55999 -0.398068,-2.28016 v -1.69361 l -0.400058,-0.0289 c -0.332561,-0.0241 -0.405122,-0.0647 -0.430129,-0.24074 -0.02742,-0.19312 0.0079,-0.21178 0.40005,-0.21178 h 0.430137 v -0.61186 c 0,-0.33651 0.03892,-0.61184 0.08643,-0.61184 0.04756,0 0.153436,-0.0257 0.235326,-0.0571 0.127162,-0.0488 0.148896,0.0405 0.148896,0.61185 v 0.66898 h 0.517709 c 0.489477,0 0.517717,0.0128 0.517717,0.23533 0,0.22249 -0.02822,0.23532 -0.517717,0.23532 h -0.517709 v 1.68282 c 0,1.90851 0.01625,1.9546 0.659803,1.86829 0.343714,-0.0461 0.375623,-0.032 0.375623,0.16591 0,0.11897 -0.06697,0.24201 -0.148895,0.27344 -0.174923,0.0671 -0.787006,0.0634 -0.959117,-0.006 z m 2.504891,-0.20871 c -0.531136,-0.33684 -0.8536,-0.95293 -0.9105,-1.73957 -0.115036,-1.59029 0.693418,-2.60316 2.074912,-2.59954 1.340945,0.003 2.030392,0.91513 1.936018,2.55989 -0.03416,0.5958 -0.09146,0.80648 -0.31961,1.1755 -0.393083,0.6358 -0.84928,0.87193 -1.688359,0.87388 -0.571796,0.002 -0.723513,-0.0362 -1.092461,-0.27016 z m 1.536943,-0.20176 c 1.17906,-0.32748 1.514395,-2.34848 0.54973,-3.31314 -0.331412,-0.33141 -0.392607,-0.35511 -0.917045,-0.35511 -0.427649,0 -0.636408,0.0506 -0.87359,0.21179 -0.634996,0.43153 -0.913717,1.51071 -0.619192,2.39746 0.181375,0.54604 0.457774,0.83791 0.96468,1.01865 0.443897,0.15827 0.467128,0.15931 0.895417,0.0403 z m 5.632015,0.35049 c -0.274425,-0.0936 -0.334384,-0.16344 -0.358954,-0.41827 -0.01625,-0.16826 -0.01458,-0.30592 0.0039,-0.30592 0.01823,0 0.199287,0.0847 0.40238,0.18826 0.764758,0.38989 1.895803,0.16064 2.120279,-0.42975 0.269749,-0.70951 0.03416,-1.09355 -1.169508,-1.90621 -0.51251,-0.34602 -1.016136,-0.74247 -1.119172,-0.88099 -0.233892,-0.31442 -0.319713,-1.10651 -0.161323,-1.48889 0.282343,-0.68164 1.144827,-1.10419 2.039594,-0.99923 0.698071,0.0819 0.784581,0.13193 0.784581,0.45393 0,0.2321 -0.02933,0.27028 -0.164731,0.21436 -1.004199,-0.41468 -1.976901,-0.15732 -2.179573,0.57668 -0.172609,0.62515 0.05009,0.97562 1.022603,1.60924 1.325157,0.86339 1.537427,1.13748 1.529898,1.97548 -0.009,0.99974 -0.636582,1.53849 -1.781124,1.52898 -0.35152,-0.003 -0.787387,-0.0559 -0.968588,-0.11767 z m -20.802743,-3.07744 v -3.10629 h 1.411952 1.411954 v 0.23532 0.23533 h -1.176634 -1.176619 v 1.17662 1.17663 h 1.082491 1.082498 v 0.28239 0.28239 h -1.082498 -1.082491 v 1.17662 1.17663 h 1.22369 1.22369 v 0.23533 0.23532 h -1.459016 -1.459017 z m 8.754092,0.89423 v -2.21205 h 0.235327 0.235327 v 2.21205 2.21206 h -0.235327 -0.235327 z m 8.942355,0 v -2.21205 h 0.235327 c 0.20463,0 0.235326,0.0415 0.235326,0.31838 v 0.31838 l 0.371121,-0.37112 c 0.333347,-0.33335 0.412391,-0.36815 0.776569,-0.34192 0.36168,0.0261 0.408617,0.0566 0.434757,0.28309 0.0279,0.24185 0.01347,0.25131 -0.3041,0.19977 -0.430001,-0.0697 -0.739363,0.12956 -1.014621,0.65376 -0.184562,0.35149 -0.213729,0.57416 -0.246399,1.88122 l -0.0371,1.48255 h -0.225467 -0.225458 z m 13.36647,-0.89423 v -3.10629 h 0.28239 0.282389 v 2.87096 2.87097 h 1.176626 1.176626 v 0.23533 0.23532 h -1.459016 -1.459015 z m -22.289993,-2.46621 c -0.236437,-0.23643 -0.06047,-0.64008 0.279077,-0.64008 0.09137,0 0.211462,0.0847 0.266873,0.18825 0.203377,0.38002 -0.245933,0.75185 -0.54595,0.45183 z"
       id="path51"
       inkscape:connector-curvature="0" />
  </g>
</svg>
