<?xml version="1.0" encoding="UTF-8" standalone="no"?>
<!-- Created with Inkscape (http://www.inkscape.org/) -->

<svg
   xmlns:dc="http://purl.org/dc/elements/1.1/"
   xmlns:cc="http://creativecommons.org/ns#"
   xmlns:rdf="http://www.w3.org/1999/02/22-rdf-syntax-ns#"
   xmlns:svg="http://www.w3.org/2000/svg"
   xmlns="http://www.w3.org/2000/svg"
   xmlns:sodipodi="http://sodipodi.sourceforge.net/DTD/sodipodi-0.dtd"
   xmlns:inkscape="http://www.inkscape.org/namespaces/inkscape"
   width="14.209558mm"
   height="13.452716mm"
   viewBox="0 0 14.209558 13.452716"
   version="1.1"
   id="svg5254"
   inkscape:version="0.92.1 r15371"
   sodipodi:docname="logo_editor_sql_mobile.svg">
  <defs
     id="defs5248" />
  <sodipodi:namedview
     id="base"
     pagecolor="#ffffff"
     bordercolor="#666666"
     borderopacity="1.0"
     inkscape:pageopacity="0.0"
     inkscape:pageshadow="2"
     inkscape:zoom="5.6"
     inkscape:cx="61.307582"
     inkscape:cy="24.154115"
     inkscape:document-units="mm"
     inkscape:current-layer="layer1"
     showgrid="false"
     inkscape:window-width="1366"
     inkscape:window-height="715"
     inkscape:window-x="-8"
     inkscape:window-y="-8"
     inkscape:window-maximized="1" />
  <metadata
     id="metadata5251">
    <rdf:RDF>
      <cc:Work
         rdf:about="">
        <dc:format>image/svg+xml</dc:format>
        <dc:type
           rdf:resource="http://purl.org/dc/dcmitype/StillImage" />
        <dc:title />
      </cc:Work>
    </rdf:RDF>
  </metadata>
  <g
     inkscape:label="Camada 1"
     inkscape:groupmode="layer"
     id="layer1"
     transform="translate(-97.895218,-141.77364)">
    <g
       id="g5227"
       transform="matrix(0.93349966,0,0,0.93349966,163.90022,52.57885)"
       style="fill:#ffffff;stroke:#ffffff">
      <path
         d="m -232.24219,383.92578 0.002,0.002 c -3.8428,0.0398 -7.41,2.04743 -9.42188,5.30274 -0.71319,1.15396 -0.75295,1.16794 -2.94336,1.01562 -3.00854,-0.20912 -4.7019,0.74667 -5.95508,3.35938 -0.48918,1.0199 -1.18869,1.95126 -1.55273,2.07031 -1.25222,0.40955 -3.54233,2.814 -4.3711,4.58984 -1.5079,3.23146 -0.95739,7.34928 1.37891,10.31836 0.87196,1.10797 0.9302,1.26491 0.26563,0.71094 -1.83523,-1.52976 -3.54883,-4.33939 -3.54883,-5.81836 0,-0.47093 -0.49654,-0.8499 -1.68945,-1.29101 -0.92945,-0.34364 -2.38984,-1.00507 -3.2461,-1.47071 -0.85626,-0.4656 -1.61636,-0.84765 -1.68945,-0.84765 -0.0731,0 -0.13477,1.33022 -0.13477,2.95508 0,2.8704 0.0328,2.98516 1.15625,4.05273 2.10959,2.00466 6.92977,3.79039 11.2461,4.16797 1.04846,0.0918 1.99612,0.256 2.10547,0.36523 0.10916,0.10923 7.54149,0.19922 16.51757,0.19922 15.33018,0 16.40025,-0.041 17.64453,-0.67578 3.11043,-1.5868 4.67969,-4.22386 4.67969,-7.86328 0,-2.63063 -0.73987,-4.59337 -2.33398,-6.1875 -1.23554,-1.23557 -3.5069,-2.33046 -4.85352,-2.3418 -0.87053,-0.007 -0.97851,-0.1396 -0.97851,-1.19726 0,-0.65375 -0.21763,-1.90866 -0.48243,-2.78907 l -0.26171,-0.86718 c 0,0 0,-0.002 0,-0.002 l -0.0801,-0.26367 c -0.0396,0.009 -0.0557,-0.003 -0.084,-0.0918 0.001,-0.0302 -6.7e-4,-0.031 0.004,-0.0586 0.005,-0.034 0.0156,0.0386 -0.004,-0.0332 -0.006,-0.0189 -0.0127,-0.0381 -0.0176,-0.0547 -0.0136,-0.0507 -0.009,-0.0885 -0.041,-0.13086 -0.0144,-0.0518 -0.0537,-0.0875 -0.0508,-0.15625 -0.004,-0.0533 -0.006,-0.10878 0.01,-0.16015 -0.006,-0.009 -0.0127,-0.0168 -0.0176,-0.0254 -0.0374,-0.0714 -0.0399,-0.0764 -0.0391,-0.14257 -7.6e-4,-0.048 0.003,-0.095 0.008,-0.14258 0.004,0.003 0.0132,0.0131 0.0117,0.01 -0.003,-0.008 -0.0126,-0.01 -0.0156,-0.0176 -0.002,-0.004 -0.0324,-0.0689 -0.0195,-0.0957 -0.008,-0.0133 -0.0174,-0.026 -0.0234,-0.0391 -0.003,-0.004 8e-5,-0.012 -0.002,-0.0195 -0.01,-0.0302 -0.0213,-0.0526 -0.0273,-0.082 -0.005,-0.0151 -0.0114,-0.033 -0.0137,-0.0488 -0.0218,-0.0279 -0.0338,-0.0584 -0.0234,-0.10352 0.004,-0.0227 -0.004,-0.0385 0.0117,-0.0234 0.003,0.003 0.006,0.007 0.01,0.01 -0.0564,-0.0505 -0.0512,-0.0316 -0.0684,-0.11523 0.003,-0.0227 0.002,-0.0214 0.0156,0 0.002,0.004 -0.006,-0.008 -0.008,-0.0117 -0.0283,-0.0525 -0.0265,-0.0349 -0.0254,-0.0625 -0.009,-0.0416 0.0169,0.0792 -0.0254,-0.0742 -0.0117,-0.0427 0.0367,0.0197 -0.006,-0.0332 -0.0378,-0.0771 0.0164,0.0341 -0.0176,-0.0449 -0.0145,-0.0342 -0.0303,-0.0712 -0.0351,-0.10938 -0.0147,-0.0197 -0.025,-0.0399 -0.0449,-0.0605 -0.008,-0.0109 -0.035,-0.0482 -0.0391,-0.0547 0.004,-0.0197 -0.24507,-0.0551 -0.0644,-0.0703 -0.004,-0.0189 -0.009,-0.0338 -0.0117,-0.0527 -5.2e-4,-0.003 0.009,0.008 0.008,0.004 -0.0121,-0.0264 -0.0247,-0.0374 -0.0469,-0.0586 -0.0159,-0.0227 -0.036,-0.0442 -0.0449,-0.0703 -7.6e-4,-0.002 0.009,0.005 0.008,0.004 -0.0117,-0.0189 -0.0683,-0.0626 -0.0606,-0.0762 -0.002,-0.008 -0.006,-0.0159 -0.008,-0.0234 -0.003,-0.0107 -0.003,-0.0208 -0.006,-0.0312 -7.6e-4,-0.002 -0.009,-0.004 -0.01,-0.01 -0.0314,-0.034 -0.037,-0.0349 -0.0625,-0.0742 -0.0544,-0.0824 0.0313,0.002 -0.0684,-0.0879 -0.006,-0.0113 -0.0111,-0.0238 -0.0156,-0.0352 h 0.002 c -0.0151,-0.0265 -0.0455,-0.0482 -0.0527,-0.0762 -0.0128,-0.0151 -0.0358,-0.0444 -0.041,-0.0527 -0.005,-0.008 -0.008,-0.0197 -0.0117,-0.0274 -0.0119,-0.0259 -0.0308,-0.0564 -0.0312,-0.0879 -0.01,-0.0156 -0.0344,-0.0391 -0.0391,-0.0488 -0.0117,-0.0247 -0.0205,-0.0501 -0.0293,-0.0762 -0.007,-0.007 -0.003,-0.002 -0.0137,-0.0176 -0.004,-0.004 -0.004,-0.0118 -0.008,-0.0156 -0.014,-0.0227 -0.0291,-0.0437 -0.043,-0.0664 -0.006,-0.008 -0.0115,-0.0198 -0.0176,-0.0273 -0.0102,-0.0265 0.007,0.0189 -0.0312,-0.0469 -0.006,-0.0113 -0.009,-0.0217 -0.0137,-0.0293 -0.002,-0.008 -0.003,-0.012 -0.006,-0.0195 -0.0121,-0.0227 -0.0273,-0.0374 -0.0449,-0.0566 -0.0235,-0.0316 -0.028,-0.0443 -0.0391,-0.0703 -8.1e-4,-0.001 -8.3e-4,-0.002 -0.002,-0.004 -0.008,-0.011 -0.0153,-0.0213 -0.0234,-0.0312 0.003,-0.006 -0.005,-0.0113 -0.008,-0.0137 0.0138,0.0176 -0.0233,-0.0182 -0.0508,-0.043 -0.002,-0.004 -0.004,10e-4 -0.008,-0.006 -0.008,-0.007 -0.0103,-0.01 -0.0156,-0.0137 0.004,0.003 0.008,0.005 0.0117,0.008 -0.008,-0.015 -0.0224,-0.0266 -0.0352,-0.0469 -0.0136,-0.0131 -0.0257,-0.0278 -0.0391,-0.041 l -0.004,-0.004 c -0.0239,-0.0292 -0.0601,-0.0702 -0.0371,-0.0625 0.024,0.008 0.0508,0.0611 0.0801,0.10742 0.007,0.006 0.013,0.013 0.0195,0.0195 -0.004,-0.006 -0.008,-0.0123 -0.0117,-0.0176 -0.009,-0.0198 -0.003,-0.0124 0.006,-0.006 -9.7e-4,-0.002 -9.1e-4,-0.002 -0.002,-0.004 -0.002,-0.001 -0.008,-0.005 -0.0117,-0.008 -0.0189,-0.021 -0.0367,-0.047 -0.0547,-0.0703 -10e-4,-9.6e-4 -9.5e-4,-0.003 -0.002,-0.004 0,0 -0.002,-0.002 -0.002,-0.002 -0.0219,-0.0172 -0.042,-0.0291 -0.0723,-0.0645 -0.004,-0.004 -0.008,-0.009 -0.0117,-0.0137 -0.7355,-0.43261 -1.49466,-0.94818 -2.29102,-1.58398 -2.13197,-1.70207 -4.23785,-2.35042 -7.50781,-2.31641 z m 10.03907,4.17188 c -0.002,-0.002 0.001,-9.8e-4 -0.008,-0.0137 -0.0107,-0.0141 -0.0285,-0.0271 -0.0234,-0.0195 0.0104,0.011 0.0219,0.0213 0.0313,0.0332 z m 1.09179,2.0332 c -8.9e-4,-0.008 0.006,0.0118 0.01,0.0156 0.006,0.008 0.0259,0.0214 0.0195,0.0176 -0.0131,-0.0113 -0.0204,-0.0218 -0.0293,-0.0332 z m 0.13867,0.60352 c 0.003,0.004 0.004,0.0118 0.008,0.0156 0.002,0.002 -2.7e-4,-0.008 -0.002,-0.008 -0.002,-0.003 -0.004,-0.005 -0.006,-0.008 z m -1.28515,-2.68946 0.002,0.006 c 0.005,0.004 0.0118,0.006 0.0176,0.01 0.003,0.005 -4.7e-4,0.002 -0.0195,-0.0156 z m 1.64843,1.27149 c -6.3e-4,-0.005 4.5e-4,0.0153 0,0.0137 l 0.002,0.002 c -6.4e-4,-0.005 -8.8e-4,-0.0104 -0.002,-0.0156 z m -0.4414,0.14062 c 7.4e-4,0.002 0.003,0.007 0.004,0.008 -1.3e-4,-0.002 -0.003,-0.006 -0.004,-0.008 z m 0.73242,0.70117 c 0.003,0.006 -0.002,10e-5 0,0.004 0.001,0.002 0.002,0.004 0.004,0.006 -1e-4,-0.002 8e-5,-0.006 0,-0.008 l -0.002,-0.002 z"
         style="fill:#ffffff;stroke:#ffffff;stroke-width:0.3557671"
         transform="scale(0.26458333)"
         id="path5115"
         inkscape:connector-curvature="0" />
      <path
         id="path5113"
         d="m -69.076655,105.82051 c -0.938779,-0.44063 -1.076974,-0.64678 -1.076974,-1.60653 v -0.77021 l 0.635377,0.31267 c 0.349459,0.17197 1.016603,0.4037 1.482548,0.51495 0.465946,0.11126 0.908328,0.21879 0.983084,0.23896 0.09186,0.0248 0.04613,0.0913 -0.141199,0.20519 -0.363234,0.2209 -0.819336,0.74589 -0.975451,1.12279 -0.06856,0.16544 -0.151226,0.29929 -0.183777,0.29743 -0.03258,-0.002 -0.35817,-0.14373 -0.723608,-0.31525 z"
         style="fill:#ffffff;stroke:#ffffff;stroke-width:0.09413005"
         inkscape:connector-curvature="0" />
      <path
         id="path5107"
         d="m -67.141468,103.53243 c -1.126963,-0.18944 -2.389315,-0.70218 -2.788081,-1.13246 -0.199208,-0.21495 -0.22408,-0.32993 -0.22408,-1.03599 0,-0.43681 0.03178,-0.77984 0.07062,-0.76229 0.03883,0.0176 0.299803,0.15233 0.579943,0.29951 1.133842,0.59566 3.521565,0.97645 5.467919,0.87199 l 1.08249,-0.0581 -0.39019,0.36361 c -0.214609,0.19998 -0.507406,0.54073 -0.650666,0.7572 -0.145201,0.21941 -0.313246,0.37336 -0.379697,0.34786 -0.574807,-0.22057 -1.437949,-0.0826 -1.736913,0.27762 -0.108608,0.13087 -0.510703,0.15857 -1.031321,0.071 z"
         style="fill:#ffffff;stroke:#ffffff;stroke-width:0.09413005"
         inkscape:connector-curvature="0" />
      <path
         d="m -224.375,380.16602 c -0.22461,0 -5.55078,2.55829 -5.55078,2.66601 0,0.0536 0.83282,0.36977 1.85156,0.70313 1.01872,0.3332 2.1758,0.83271 2.57031,1.10937 0.3945,0.27644 0.84194,0.50195 0.99414,0.50195 0.1519,0 0.27539,-1.12053 0.27539,-2.49023 10e-6,-1.3697 -0.063,-2.49023 -0.14062,-2.49023 z"
         style="fill:#ffffff;stroke:#ffffff;stroke-width:0.3557671"
         transform="scale(0.26458333)"
         id="path5093"
         inkscape:connector-curvature="0" />
      <path
         d="m -244.93164,363.11914 c -7.99834,0.0408 -15.65517,1.73073 -18.90039,4.58008 l -1.31641,1.15625 v 3.27539 c 0,3.11456 0.0485,3.32095 0.97852,4.19336 2.19877,2.06255 7.23547,3.77864 13.31445,4.53516 2.91703,0.36325 10.99214,0.15926 14.52539,-0.36719 5.5268,-0.82345 10.5213,-3.1085 11.64258,-5.32422 0.21684,-0.42846 0.34488,-1.11602 0.40234,-1.88672 4.3e-4,-0.32611 10e-4,-0.65206 0,-0.97852 -0.001,-0.19849 -0.004,-0.39248 -0.004,-0.4375 -0.0693,-0.013 -0.0592,-0.0255 0,-0.0371 v -0.0117 c 0.01,-6.6e-4 0.016,-0.001 0.0254,-0.002 -5.7e-4,-0.0131 -0.001,-0.026 -0.002,-0.0391 -0.007,-1.1e-4 -0.012,1.2e-4 -0.0195,0 -0.0722,-10e-4 -0.0318,-0.11186 0.006,-0.21875 -0.0679,-1.08633 -0.25874,-2.13605 -0.57812,-2.77539 -0.86252,-1.72661 -4.84829,-3.71079 -9.33789,-4.64844 -3.39444,-0.70895 -7.10072,-1.03223 -10.73633,-1.01367 z"
         style="fill:#ffffff;stroke:#ffffff;stroke-width:0.3557671"
         transform="scale(0.26458333)"
         id="path5091"
         inkscape:connector-curvature="0" />
      <path
         sodipodi:nodetypes="cccc"
         inkscape:connector-curvature="0"
         id="path5215"
         d="m -64.066962,103.2846 c 1.981728,-3.16005 6.012236,-1.78264 5.894064,1.7068 v 0 0"
         style="fill:#ffffff;stroke:#ffffff;stroke-width:0.16945601;stroke-linecap:butt;stroke-linejoin:miter;stroke-miterlimit:4;stroke-dasharray:none;stroke-opacity:1" />
    </g>
  </g>
</svg>
